<svg xmlns="http://www.w3.org/2000/svg" xmlns:xlink="http://www.w3.org/1999/xlink" width="770" zoomAndPan="magnify" viewBox="0 0 577.5 127.500001" height="170" preserveAspectRatio="xMidYMid meet" version="1.0"><defs><g/><clipPath id="1d10ec88fc"><path d="M 5.117188 19 L 258.71875 19 L 258.71875 109.421875 L 5.117188 109.421875 Z M 5.117188 19 " clip-rule="nonzero"/></clipPath><clipPath id="8c8340edd1"><path d="M 64.882812 19 L 252.714844 19 C 254.855469 19 256.832031 20.148438 257.894531 22.007812 C 258.953125 23.871094 258.933594 26.15625 257.84375 28 L 214.957031 100.421875 C 211.652344 106 205.652344 109.421875 199.167969 109.421875 L 11.335938 109.421875 C 9.195312 109.421875 7.21875 108.273438 6.160156 106.410156 C 5.097656 104.550781 5.117188 102.265625 6.207031 100.421875 L 49.09375 28 C 52.398438 22.421875 58.402344 19 64.882812 19 Z M 64.882812 19 " clip-rule="nonzero"/></clipPath><clipPath id="f8ed1658c6"><path d="M 46 2 L 71 2 L 71 47 L 46 47 Z M 46 2 " clip-rule="nonzero"/></clipPath><clipPath id="eb82cdf78d"><path d="M 43.4375 4.90625 L 57.746094 -0.0273438 L 73.632812 46.019531 L 59.324219 50.953125 Z M 43.4375 4.90625 " clip-rule="nonzero"/></clipPath><clipPath id="a39ef84980"><path d="M 59.355469 51.039062 L 73.660156 46.101562 L 57.773438 0.0546875 L 43.46875 4.992188 Z M 59.355469 51.039062 " clip-rule="nonzero"/></clipPath><clipPath id="0691442592"><path d="M 50 24 L 57 24 L 57 37 L 50 37 Z M 50 24 " clip-rule="nonzero"/></clipPath><clipPath id="24c1486ca3"><path d="M 50.828125 25.082031 L 53.082031 24.363281 L 56.746094 35.820312 L 54.492188 36.542969 Z M 50.828125 25.082031 " clip-rule="nonzero"/></clipPath></defs><g clip-path="url(#1d10ec88fc)"><g clip-path="url(#8c8340edd1)"><path fill="#332219" d="M 0.878906 19 L 263.308594 19 L 263.308594 109.421875 L 0.878906 109.421875 Z M 0.878906 19 " fill-opacity="1" fill-rule="nonzero"/></g></g><g clip-path="url(#f8ed1658c6)"><g clip-path="url(#eb82cdf78d)"><g clip-path="url(#a39ef84980)"><path fill="#8d7d72" d="M 64.621094 21.21875 C 66.644531 27.078125 68.882812 32.910156 70.699219 38.839844 C 72.121094 43.464844 66.78125 48.449219 62.265625 45.800781 C 60.929688 45.015625 60.300781 43.730469 59.804688 42.34375 C 58.90625 39.851562 58.074219 37.332031 57.210938 34.828125 C 55.214844 29.046875 53.023438 23.292969 51.214844 17.449219 C 49.46875 11.808594 57.835938 9.324219 60.085938 14.574219 C 62.4375 20.0625 64.027344 26 65.976562 31.644531 C 66.273438 32.507812 64.933594 32.96875 64.636719 32.105469 L 59.878906 18.3125 C 59.441406 17.054688 59.152344 15.433594 58.371094 14.3125 C 56.367188 11.417969 51.5625 13.632812 52.554688 16.988281 C 53.894531 21.53125 55.660156 25.992188 57.203125 30.464844 C 58.574219 34.433594 59.699219 38.609375 61.347656 42.472656 C 62.878906 46.070312 68.34375 45.5625 69.46875 41.792969 C 69.828125 40.59375 69.570312 39.902344 69.199219 38.828125 L 59.023438 9.328125 C 58.304688 7.25 57.472656 4.96875 55.269531 4.0625 C 52.769531 3.039062 49.417969 4.421875 48.195312 6.757812 C 46.464844 10.070312 49.476562 15.601562 50.546875 18.703125 L 55.738281 33.75 C 56.035156 34.613281 54.695312 35.078125 54.398438 34.214844 L 48.710938 17.730469 C 47.550781 14.367188 45.164062 9.914062 46.8125 6.355469 C 47.867188 4.078125 50.4375 2.519531 52.914062 2.324219 C 56.105469 2.074219 58.476562 4.175781 59.6875 6.988281 C 61.652344 11.570312 62.996094 16.511719 64.621094 21.21875 Z M 64.621094 21.21875 " fill-opacity="1" fill-rule="nonzero"/></g></g></g><g fill="#332219" fill-opacity="1"><g transform="translate(260.265765, 94.973186)"><g><path d="M 22.03125 -39.375 C 28.769531 -39.375 33.835938 -37.300781 37.234375 -33.15625 C 40.628906 -29.007812 42.109375 -23.328125 41.671875 -16.109375 L 14.296875 -16.109375 C 14.921875 -13.796875 16.03125 -12.015625 17.625 -10.765625 C 19.21875 -9.515625 21.164062 -8.890625 23.46875 -8.890625 C 27.039062 -8.890625 30.148438 -10.210938 32.796875 -12.859375 L 39.375 -6.421875 C 35.175781 -1.847656 29.515625 0.4375 22.390625 0.4375 C 16.085938 0.4375 11.066406 -1.367188 7.328125 -4.984375 C 3.597656 -8.597656 1.734375 -13.390625 1.734375 -19.359375 C 1.734375 -25.378906 3.597656 -30.21875 7.328125 -33.875 C 11.066406 -37.539062 15.96875 -39.375 22.03125 -39.375 Z M 14.078125 -22.828125 L 29.6875 -22.828125 C 29.6875 -25.179688 29 -27.082031 27.625 -28.53125 C 26.257812 -29.976562 24.441406 -30.703125 22.171875 -30.703125 C 20.054688 -30.703125 18.273438 -29.988281 16.828125 -28.5625 C 15.378906 -27.144531 14.460938 -25.234375 14.078125 -22.828125 Z M 14.078125 -22.828125 "/></g></g></g><g fill="#332219" fill-opacity="1"><g transform="translate(299.631008, 94.973186)"><g><path d="M 21.953125 -27.734375 L 28.890625 -38.9375 L 42.546875 -38.9375 L 30.1875 -20.015625 L 43.40625 0 L 29.03125 0 L 21.953125 -12.203125 L 14.015625 0 L 0.28125 0 L 13.578125 -19.9375 L 1.15625 -38.9375 L 15.453125 -38.9375 Z M 21.953125 -27.734375 "/></g></g></g><g fill="#332219" fill-opacity="1"><g transform="translate(339.28516, 94.973186)"><g><path d="M 27.671875 -10.765625 L 30.125 -2.09375 C 27.09375 -0.3125 23.625 0.578125 19.71875 0.578125 C 15.863281 0.578125 12.742188 -0.488281 10.359375 -2.625 C 7.984375 -4.769531 6.796875 -7.820312 6.796875 -11.78125 L 6.796875 -28.96875 L 1.375 -28.96875 L 1.375 -37.125 L 6.796875 -37.125 L 6.796875 -47.96875 L 19.21875 -47.96875 L 19.21875 -37.203125 L 29.40625 -37.203125 L 29.40625 -28.96875 L 19.21875 -28.96875 L 19.21875 -13.71875 C 19.21875 -12.226562 19.515625 -11.132812 20.109375 -10.4375 C 20.710938 -9.738281 21.617188 -9.414062 22.828125 -9.46875 C 23.984375 -9.46875 25.597656 -9.898438 27.671875 -10.765625 Z M 27.671875 -10.765625 "/></g></g></g><g fill="#332219" fill-opacity="1"><g transform="translate(366.590641, 94.973186)"><g/></g></g><g fill="#44312b" fill-opacity="1"><g transform="translate(225.523814, 94.973186)"><g><path d="M 43.703125 -40.234375 L 28.453125 -40.234375 L 28.453125 0 L 15.609375 0 L 15.609375 -40.234375 L 0.5 -40.234375 L 0.5 -50.640625 L 43.703125 -50.640625 Z M 43.703125 -40.234375 "/></g></g></g><g fill="#f4e8d9" fill-opacity="1"><g transform="translate(37.163017, 90.334883)"><g><path d="M 24.484375 -51.140625 C 32.046875 -51.140625 38.691406 -49.257812 44.421875 -45.5 L 39.578125 -35.46875 C 36.929688 -37.007812 34.09375 -38.269531 31.0625 -39.25 C 28.03125 -40.238281 25.476562 -40.734375 23.40625 -40.734375 C 19.695312 -40.734375 17.84375 -39.507812 17.84375 -37.0625 C 17.84375 -35.46875 18.753906 -34.1875 20.578125 -33.21875 C 22.410156 -32.257812 24.640625 -31.429688 27.265625 -30.734375 C 29.890625 -30.035156 32.515625 -29.191406 35.140625 -28.203125 C 37.765625 -27.222656 39.988281 -25.625 41.8125 -23.40625 C 43.644531 -21.1875 44.5625 -18.394531 44.5625 -15.03125 C 44.5625 -10.164062 42.660156 -6.367188 38.859375 -3.640625 C 35.054688 -0.921875 30.21875 0.4375 24.34375 0.4375 C 20.15625 0.4375 16.015625 -0.285156 11.921875 -1.734375 C 7.828125 -3.179688 4.265625 -5.15625 1.234375 -7.65625 L 6.21875 -17.546875 C 8.769531 -15.335938 11.773438 -13.519531 15.234375 -12.09375 C 18.703125 -10.675781 21.785156 -9.96875 24.484375 -9.96875 C 26.554688 -9.96875 28.171875 -10.335938 29.328125 -11.078125 C 30.484375 -11.828125 31.0625 -12.925781 31.0625 -14.375 C 31.0625 -15.769531 30.398438 -16.9375 29.078125 -17.875 C 27.753906 -18.8125 26.101562 -19.507812 24.125 -19.96875 C 22.15625 -20.425781 20.015625 -21.039062 17.703125 -21.8125 C 15.390625 -22.582031 13.242188 -23.425781 11.265625 -24.34375 C 9.296875 -25.257812 7.644531 -26.710938 6.3125 -28.703125 C 4.988281 -30.703125 4.328125 -33.101562 4.328125 -35.90625 C 4.328125 -40.519531 6.171875 -44.210938 9.859375 -46.984375 C 13.546875 -49.753906 18.421875 -51.140625 24.484375 -51.140625 Z M 24.484375 -51.140625 "/></g></g></g><g fill="#f4e8d9" fill-opacity="1"><g transform="translate(79.561942, 90.334883)"><g><path d="M 57 -39.515625 C 61.28125 -39.515625 64.679688 -38.148438 67.203125 -35.421875 C 69.734375 -32.703125 71 -29.082031 71 -24.5625 L 71 0 L 58.578125 0 L 58.578125 -21.09375 C 58.578125 -23.40625 57.972656 -25.222656 56.765625 -26.546875 C 55.566406 -27.867188 53.929688 -28.53125 51.859375 -28.53125 C 49.546875 -28.476562 47.703125 -27.597656 46.328125 -25.890625 C 44.960938 -24.179688 44.28125 -21.976562 44.28125 -19.28125 L 44.28125 0 L 31.78125 0 L 31.78125 -21.09375 C 31.78125 -23.40625 31.191406 -25.222656 30.015625 -26.546875 C 28.835938 -27.867188 27.210938 -28.53125 25.140625 -28.53125 C 22.773438 -28.476562 20.894531 -27.585938 19.5 -25.859375 C 18.101562 -24.128906 17.40625 -21.9375 17.40625 -19.28125 L 17.40625 0 L 4.984375 0 L 4.984375 -38.9375 L 17.40625 -38.9375 L 17.40625 -32.5 C 20.050781 -37.082031 24.335938 -39.421875 30.265625 -39.515625 C 33.398438 -39.515625 36.109375 -38.726562 38.390625 -37.15625 C 40.679688 -35.59375 42.304688 -33.441406 43.265625 -30.703125 C 45.816406 -36.484375 50.394531 -39.421875 57 -39.515625 Z M 57 -39.515625 "/></g></g></g><g fill="#f4e8d9" fill-opacity="1"><g transform="translate(150.347471, 90.334883)"><g><path d="M 22.46875 -39.515625 C 27.8125 -39.515625 31.960938 -38.273438 34.921875 -35.796875 C 37.890625 -33.316406 39.394531 -29.859375 39.4375 -25.421875 L 39.4375 0 L 27.234375 0 L 27.234375 -4.484375 C 24.679688 -1.109375 20.707031 0.578125 15.3125 0.578125 C 11.21875 0.578125 7.96875 -0.550781 5.5625 -2.8125 C 3.15625 -5.082031 1.953125 -8.019531 1.953125 -11.625 C 1.953125 -15.332031 3.238281 -18.207031 5.8125 -20.25 C 8.382812 -22.300781 12.082031 -23.351562 16.90625 -23.40625 L 27.15625 -23.40625 L 27.15625 -23.984375 C 27.15625 -25.910156 26.515625 -27.414062 25.234375 -28.5 C 23.960938 -29.582031 22.078125 -30.125 19.578125 -30.125 C 16.054688 -30.125 12.179688 -29.039062 7.953125 -26.875 L 4.40625 -35.109375 C 10.71875 -38.046875 16.738281 -39.515625 22.46875 -39.515625 Z M 19.140625 -7.875 C 21.117188 -7.875 22.851562 -8.363281 24.34375 -9.34375 C 25.832031 -10.332031 26.769531 -11.625 27.15625 -13.21875 L 27.15625 -16.6875 L 19.28125 -16.6875 C 15.53125 -16.6875 13.65625 -15.289062 13.65625 -12.5 C 13.65625 -11.050781 14.132812 -9.914062 15.09375 -9.09375 C 16.0625 -8.28125 17.410156 -7.875 19.140625 -7.875 Z M 19.140625 -7.875 "/></g></g></g><g fill="#f4e8d9" fill-opacity="1"><g transform="translate(189.568246, 90.334883)"><g><path d="M 17.484375 -38.9375 L 17.484375 -32.359375 C 20.222656 -37.035156 24.4375 -39.421875 30.125 -39.515625 L 30.125 -28.25 C 26.5625 -28.582031 23.644531 -27.988281 21.375 -26.46875 C 19.113281 -24.957031 17.816406 -22.804688 17.484375 -20.015625 L 17.484375 0 L 4.984375 0 L 4.984375 -38.9375 Z M 17.484375 -38.9375 "/></g></g></g><g fill="#f4e8d9" fill-opacity="1"><g transform="translate(216.293145, 90.334883)"><g><path d="M 43.703125 -40.234375 L 28.453125 -40.234375 L 28.453125 0 L 15.609375 0 L 15.609375 -40.234375 L 0.5 -40.234375 L 0.5 -50.640625 L 43.703125 -50.640625 Z M 43.703125 -40.234375 "/></g></g></g><g fill="#332219" fill-opacity="1"><g transform="translate(370.074473, 94.973186)"><g/></g></g><g fill="#332219" fill-opacity="1"><g transform="translate(382.730181, 94.973186)"><g><path d="M 5.0625 -50.5625 L 27.09375 -50.5625 C 33.539062 -50.5625 38.546875 -49.03125 42.109375 -45.96875 C 45.671875 -42.914062 47.453125 -38.570312 47.453125 -32.9375 C 47.453125 -27.007812 45.671875 -22.410156 42.109375 -19.140625 C 38.546875 -15.867188 33.539062 -14.234375 27.09375 -14.234375 L 17.921875 -14.234375 L 17.921875 0 L 5.0625 0 Z M 17.921875 -40.453125 L 17.921875 -24.34375 L 26.4375 -24.34375 C 29.28125 -24.34375 31.472656 -25.039062 33.015625 -26.4375 C 34.554688 -27.832031 35.328125 -29.851562 35.328125 -32.5 C 35.328125 -35.101562 34.554688 -37.078125 33.015625 -38.421875 C 31.472656 -39.773438 29.28125 -40.453125 26.4375 -40.453125 Z M 17.921875 -40.453125 "/></g></g></g><g fill="#332219" fill-opacity="1"><g transform="translate(427.729393, 94.973186)"><g><path d="M 5.0625 -50.5625 L 26.796875 -50.5625 C 34.742188 -50.5625 41.207031 -48.222656 46.1875 -43.546875 C 51.175781 -38.878906 53.671875 -32.789062 53.671875 -25.28125 C 53.671875 -17.8125 51.140625 -11.726562 46.078125 -7.03125 C 41.023438 -2.34375 34.429688 0 26.296875 0 L 5.0625 0 Z M 17.921875 -40.3125 L 17.921875 -10.25 L 27.09375 -10.25 C 31.039062 -10.25 34.273438 -11.632812 36.796875 -14.40625 C 39.328125 -17.175781 40.59375 -20.773438 40.59375 -25.203125 C 40.59375 -29.640625 39.269531 -33.265625 36.625 -36.078125 C 33.976562 -38.898438 30.609375 -40.3125 26.515625 -40.3125 Z M 17.921875 -40.3125 "/></g></g></g><g fill="#332219" fill-opacity="1"><g transform="translate(479.012666, 94.973186)"><g><path d="M 42.546875 -40.453125 L 17.921875 -40.453125 L 17.921875 -28.75 L 40.59375 -28.75 L 40.59375 -18.640625 L 17.921875 -18.640625 L 17.921875 0 L 5.0625 0 L 5.0625 -50.5625 L 42.546875 -50.5625 Z M 42.546875 -40.453125 "/></g></g></g><g fill="#332219" fill-opacity="1"><g transform="translate(518.522351, 94.973186)"><g><path d="M 4.40625 -9.8125 C 5.507812 -10.925781 6.953125 -11.484375 8.734375 -11.484375 C 10.515625 -11.484375 11.972656 -10.925781 13.109375 -9.8125 C 14.242188 -8.707031 14.8125 -7.265625 14.8125 -5.484375 C 14.8125 -3.703125 14.242188 -2.242188 13.109375 -1.109375 C 11.972656 0.015625 10.515625 0.578125 8.734375 0.578125 C 6.953125 0.578125 5.507812 0.015625 4.40625 -1.109375 C 3.300781 -2.242188 2.75 -3.703125 2.75 -5.484375 C 2.75 -7.265625 3.300781 -8.707031 4.40625 -9.8125 Z M 4.40625 -9.8125 "/></g></g></g><g clip-path="url(#0691442592)"><g clip-path="url(#24c1486ca3)"><path fill="#332219" d="M 50.828125 25.082031 L 53.082031 24.363281 L 56.746094 35.824219 L 54.496094 36.546875 Z M 50.828125 25.082031 " fill-opacity="1" fill-rule="nonzero"/></g></g><path stroke-linecap="butt" transform="matrix(0.291292, -0.372553, 0.372553, 0.291292, 51.281001, 24.937401)" fill="none" stroke-linejoin="miter" d="M 0.00236399 2.001468 L 3.492032 1.999088 " stroke="#332219" stroke-width="4" stroke-opacity="1" stroke-miterlimit="4"/></svg>