<svg xmlns="http://www.w3.org/2000/svg" xmlns:xlink="http://www.w3.org/1999/xlink" width="732" zoomAndPan="magnify" viewBox="0 0 549 125.999998" height="168" preserveAspectRatio="xMidYMid meet" version="1.0"><defs><g/><clipPath id="c1e2a53746"><path d="M 4.210938 18.878906 L 256.210938 18.878906 L 256.210938 108.730469 L 4.210938 108.730469 Z M 4.210938 18.878906 " clip-rule="nonzero"/></clipPath><clipPath id="b58a5f18f8"><path d="M 63.707031 18.878906 L 250.136719 18.878906 C 252.289062 18.878906 254.273438 20.035156 255.339844 21.902344 C 256.402344 23.769531 256.382812 26.066406 255.289062 27.914062 L 212.78125 99.695312 C 209.464844 105.296875 203.4375 108.730469 196.929688 108.730469 L 10.5 108.730469 C 8.351562 108.730469 6.363281 107.578125 5.300781 105.707031 C 4.234375 103.839844 4.253906 101.546875 5.351562 99.695312 L 47.859375 27.914062 C 51.175781 22.316406 57.199219 18.878906 63.707031 18.878906 Z M 63.707031 18.878906 " clip-rule="nonzero"/></clipPath><clipPath id="1282afd1dc"><path d="M 45 2 L 70 2 L 70 47 L 45 47 Z M 45 2 " clip-rule="nonzero"/></clipPath><clipPath id="b877da8aa0"><path d="M 42.292969 4.875 L 56.328125 0.0351562 L 72.066406 45.648438 L 58.03125 50.492188 Z M 42.292969 4.875 " clip-rule="nonzero"/></clipPath><clipPath id="b1533ff963"><path d="M 58.105469 50.710938 L 72.140625 45.867188 L 56.402344 0.253906 L 42.367188 5.097656 Z M 58.105469 50.710938 " clip-rule="nonzero"/></clipPath><clipPath id="4f94f8ee2f"><path d="M 49 24 L 56 24 L 56 37 L 49 37 Z M 49 24 " clip-rule="nonzero"/></clipPath><clipPath id="715df7cbe8"><path d="M 49.636719 24.921875 L 51.875 24.207031 L 55.515625 35.59375 L 53.277344 36.308594 Z M 49.636719 24.921875 " clip-rule="nonzero"/></clipPath></defs><g clip-path="url(#c1e2a53746)"><g clip-path="url(#b58a5f18f8)"><path fill="#332219" d="M 0 18.878906 L 260.773438 18.878906 L 260.773438 108.730469 L 0 108.730469 Z M 0 18.878906 " fill-opacity="1" fill-rule="nonzero"/></g></g><g clip-path="url(#1282afd1dc)"><g clip-path="url(#b877da8aa0)"><g clip-path="url(#b1533ff963)"><path fill="#8d7d72" d="M 63.34375 21.082031 C 65.351562 26.90625 67.578125 32.699219 69.382812 38.589844 C 70.792969 43.1875 65.488281 48.144531 61.003906 45.511719 C 59.671875 44.730469 59.050781 43.453125 58.554688 42.074219 C 57.664062 39.597656 56.835938 37.097656 55.976562 34.609375 C 53.996094 28.863281 51.816406 23.144531 50.019531 17.335938 C 48.28125 11.730469 56.597656 9.261719 58.835938 14.480469 C 61.171875 19.929688 62.75 25.832031 64.6875 31.441406 C 64.984375 32.300781 63.652344 32.757812 63.355469 31.902344 L 58.628906 18.195312 C 58.195312 16.941406 57.90625 15.332031 57.132812 14.214844 C 55.136719 11.34375 50.367188 13.542969 51.351562 16.878906 C 52.683594 21.390625 54.4375 25.824219 55.96875 30.273438 C 57.332031 34.214844 58.449219 38.367188 60.085938 42.203125 C 61.613281 45.777344 67.039062 45.277344 68.160156 41.527344 C 68.515625 40.335938 68.257812 39.648438 67.890625 38.582031 L 57.777344 9.265625 C 57.0625 7.199219 56.238281 4.929688 54.046875 4.03125 C 51.5625 3.015625 48.230469 4.386719 47.019531 6.710938 C 45.296875 10.003906 48.289062 15.5 49.351562 18.582031 L 54.511719 33.535156 C 54.808594 34.394531 53.476562 34.855469 53.179688 33.996094 L 47.53125 17.617188 C 46.378906 14.273438 44.003906 9.847656 45.640625 6.308594 C 46.691406 4.046875 49.242188 2.496094 51.707031 2.304688 C 54.878906 2.058594 57.238281 4.144531 58.4375 6.9375 C 60.390625 11.492188 61.726562 16.402344 63.34375 21.082031 Z M 63.34375 21.082031 " fill-opacity="1" fill-rule="nonzero"/></g></g></g><g fill="#332219" fill-opacity="1"><g transform="translate(257.749442, 94.373661)"><g><path d="M 21.890625 -39.125 C 28.585938 -39.125 33.625 -37.066406 37 -32.953125 C 40.375 -28.835938 41.847656 -23.1875 41.421875 -16 L 14.21875 -16 C 14.832031 -13.707031 15.929688 -11.9375 17.515625 -10.6875 C 19.097656 -9.445312 21.035156 -8.828125 23.328125 -8.828125 C 26.867188 -8.828125 29.957031 -10.144531 32.59375 -12.78125 L 39.125 -6.390625 C 34.957031 -1.835938 29.332031 0.4375 22.25 0.4375 C 15.976562 0.4375 10.988281 -1.359375 7.28125 -4.953125 C 3.570312 -8.546875 1.71875 -13.304688 1.71875 -19.234375 C 1.71875 -25.210938 3.570312 -30.019531 7.28125 -33.65625 C 10.988281 -37.300781 15.859375 -39.125 21.890625 -39.125 Z M 14 -22.6875 L 29.5 -22.6875 C 29.5 -25.03125 28.816406 -26.914062 27.453125 -28.34375 C 26.085938 -29.78125 24.28125 -30.5 22.03125 -30.5 C 19.925781 -30.5 18.15625 -29.789062 16.71875 -28.375 C 15.289062 -26.96875 14.382812 -25.070312 14 -22.6875 Z M 14 -22.6875 "/></g></g></g><g fill="#332219" fill-opacity="1"><g transform="translate(296.866189, 94.373661)"><g><path d="M 21.828125 -27.5625 L 28.71875 -38.6875 L 42.28125 -38.6875 L 30 -19.890625 L 43.140625 0 L 28.859375 0 L 21.828125 -12.125 L 13.921875 0 L 0.28125 0 L 13.5 -19.8125 L 1.15625 -38.6875 L 15.359375 -38.6875 Z M 21.828125 -27.5625 "/></g></g></g><g fill="#332219" fill-opacity="1"><g transform="translate(336.270022, 94.373661)"><g><path d="M 27.484375 -10.703125 L 29.9375 -2.078125 C 26.914062 -0.304688 23.46875 0.578125 19.59375 0.578125 C 15.769531 0.578125 12.671875 -0.484375 10.296875 -2.609375 C 7.929688 -4.742188 6.75 -7.773438 6.75 -11.703125 L 6.75 -28.78125 L 1.359375 -28.78125 L 1.359375 -36.890625 L 6.75 -36.890625 L 6.75 -47.65625 L 19.09375 -47.65625 L 19.09375 -36.96875 L 29.21875 -36.96875 L 29.21875 -28.78125 L 19.09375 -28.78125 L 19.09375 -13.640625 C 19.09375 -12.148438 19.390625 -11.054688 19.984375 -10.359375 C 20.585938 -9.671875 21.488281 -9.351562 22.6875 -9.40625 C 23.832031 -9.40625 25.429688 -9.835938 27.484375 -10.703125 Z M 27.484375 -10.703125 "/></g></g></g><g fill="#332219" fill-opacity="1"><g transform="translate(363.403136, 94.373661)"><g/></g></g><g fill="#44312b" fill-opacity="1"><g transform="translate(223.226828, 94.373661)"><g><path d="M 43.421875 -39.984375 L 28.28125 -39.984375 L 28.28125 0 L 15.5 0 L 15.5 -39.984375 L 0.5 -39.984375 L 0.5 -50.3125 L 43.421875 -50.3125 Z M 43.421875 -39.984375 "/></g></g></g><g fill="#f4e8d9" fill-opacity="1"><g transform="translate(36.055073, 89.764635)"><g><path d="M 24.328125 -50.828125 C 31.847656 -50.828125 38.453125 -48.957031 44.140625 -45.21875 L 39.34375 -35.25 C 36.707031 -36.78125 33.878906 -38.035156 30.859375 -39.015625 C 27.847656 -39.992188 25.3125 -40.484375 23.25 -40.484375 C 19.570312 -40.484375 17.734375 -39.265625 17.734375 -36.828125 C 17.734375 -35.242188 18.640625 -33.972656 20.453125 -33.015625 C 22.273438 -32.054688 24.488281 -31.226562 27.09375 -30.53125 C 29.707031 -29.84375 32.316406 -29.007812 34.921875 -28.03125 C 37.523438 -27.050781 39.734375 -25.457031 41.546875 -23.25 C 43.367188 -21.050781 44.28125 -18.28125 44.28125 -14.9375 C 44.28125 -10.101562 42.390625 -6.332031 38.609375 -3.625 C 34.835938 -0.914062 30.03125 0.4375 24.1875 0.4375 C 20.019531 0.4375 15.90625 -0.28125 11.84375 -1.71875 C 7.78125 -3.15625 4.238281 -5.117188 1.21875 -7.609375 L 6.171875 -17.4375 C 8.710938 -15.238281 11.703125 -13.429688 15.140625 -12.015625 C 18.585938 -10.609375 21.648438 -9.90625 24.328125 -9.90625 C 26.390625 -9.90625 27.992188 -10.273438 29.140625 -11.015625 C 30.285156 -11.753906 30.859375 -12.84375 30.859375 -14.28125 C 30.859375 -15.664062 30.203125 -16.828125 28.890625 -17.765625 C 27.578125 -18.703125 25.9375 -19.394531 23.96875 -19.84375 C 22.007812 -20.300781 19.878906 -20.910156 17.578125 -21.671875 C 15.285156 -22.441406 13.15625 -23.28125 11.1875 -24.1875 C 9.226562 -25.09375 7.59375 -26.539062 6.28125 -28.53125 C 4.96875 -30.519531 4.3125 -32.898438 4.3125 -35.671875 C 4.3125 -40.265625 6.140625 -43.9375 9.796875 -46.6875 C 13.460938 -49.445312 18.304688 -50.828125 24.328125 -50.828125 Z M 24.328125 -50.828125 "/></g></g></g><g fill="#f4e8d9" fill-opacity="1"><g transform="translate(78.186352, 89.764635)"><g><path d="M 56.640625 -39.265625 C 60.898438 -39.265625 64.285156 -37.910156 66.796875 -35.203125 C 69.304688 -32.503906 70.5625 -28.90625 70.5625 -24.40625 L 70.5625 0 L 58.21875 0 L 58.21875 -20.953125 C 58.21875 -23.253906 57.617188 -25.0625 56.421875 -26.375 C 55.222656 -27.695312 53.59375 -28.359375 51.53125 -28.359375 C 49.238281 -28.304688 47.410156 -27.429688 46.046875 -25.734375 C 44.679688 -24.035156 44 -21.847656 44 -19.171875 L 44 0 L 31.578125 0 L 31.578125 -20.953125 C 31.578125 -23.253906 30.988281 -25.0625 29.8125 -26.375 C 28.644531 -27.695312 27.035156 -28.359375 24.984375 -28.359375 C 22.640625 -28.304688 20.769531 -27.414062 19.375 -25.6875 C 17.988281 -23.96875 17.296875 -21.796875 17.296875 -19.171875 L 17.296875 0 L 4.953125 0 L 4.953125 -38.6875 L 17.296875 -38.6875 L 17.296875 -32.296875 C 19.929688 -36.847656 24.191406 -39.171875 30.078125 -39.265625 C 33.179688 -39.265625 35.867188 -38.484375 38.140625 -36.921875 C 40.421875 -35.367188 42.039062 -33.226562 43 -30.5 C 45.53125 -36.25 50.078125 -39.171875 56.640625 -39.265625 Z M 56.640625 -39.265625 "/></g></g></g><g fill="#f4e8d9" fill-opacity="1"><g transform="translate(148.525044, 89.764635)"><g><path d="M 22.328125 -39.265625 C 27.640625 -39.265625 31.765625 -38.03125 34.703125 -35.5625 C 37.648438 -33.101562 39.144531 -29.671875 39.1875 -25.265625 L 39.1875 0 L 27.0625 0 L 27.0625 -4.453125 C 24.519531 -1.097656 20.570312 0.578125 15.21875 0.578125 C 11.144531 0.578125 7.910156 -0.546875 5.515625 -2.796875 C 3.128906 -5.046875 1.9375 -7.96875 1.9375 -11.5625 C 1.9375 -15.238281 3.21875 -18.09375 5.78125 -20.125 C 8.34375 -22.164062 12.015625 -23.207031 16.796875 -23.25 L 26.984375 -23.25 L 26.984375 -23.828125 C 26.984375 -25.742188 26.347656 -27.238281 25.078125 -28.3125 C 23.816406 -29.394531 21.941406 -29.9375 19.453125 -29.9375 C 15.960938 -29.9375 12.109375 -28.859375 7.890625 -26.703125 L 4.375 -34.890625 C 10.644531 -37.804688 16.628906 -39.265625 22.328125 -39.265625 Z M 19.015625 -7.828125 C 20.984375 -7.828125 22.707031 -8.316406 24.1875 -9.296875 C 25.675781 -10.273438 26.609375 -11.554688 26.984375 -13.140625 L 26.984375 -16.578125 L 19.171875 -16.578125 C 15.429688 -16.578125 13.5625 -15.191406 13.5625 -12.421875 C 13.5625 -10.984375 14.039062 -9.859375 15 -9.046875 C 15.957031 -8.234375 17.296875 -7.828125 19.015625 -7.828125 Z M 19.015625 -7.828125 "/></g></g></g><g fill="#f4e8d9" fill-opacity="1"><g transform="translate(187.498235, 89.764635)"><g><path d="M 17.375 -38.6875 L 17.375 -32.15625 C 20.101562 -36.800781 24.289062 -39.171875 29.9375 -39.265625 L 29.9375 -28.0625 C 26.394531 -28.394531 23.5 -27.804688 21.25 -26.296875 C 19 -24.796875 17.707031 -22.660156 17.375 -19.890625 L 17.375 0 L 4.953125 0 L 4.953125 -38.6875 Z M 17.375 -38.6875 "/></g></g></g><g fill="#f4e8d9" fill-opacity="1"><g transform="translate(214.054431, 89.764635)"><g><path d="M 43.421875 -39.984375 L 28.28125 -39.984375 L 28.28125 0 L 15.5 0 L 15.5 -39.984375 L 0.5 -39.984375 L 0.5 -50.3125 L 43.421875 -50.3125 Z M 43.421875 -39.984375 "/></g></g></g><g fill="#332219" fill-opacity="1"><g transform="translate(366.865003, 94.373661)"><g/></g></g><g fill="#332219" fill-opacity="1"><g transform="translate(379.440821, 94.373661)"><g><path d="M 5.03125 -50.25 L 26.921875 -50.25 C 33.328125 -50.25 38.300781 -48.726562 41.84375 -45.6875 C 45.382812 -42.644531 47.15625 -38.328125 47.15625 -32.734375 C 47.15625 -26.847656 45.382812 -22.273438 41.84375 -19.015625 C 38.300781 -15.765625 33.328125 -14.140625 26.921875 -14.140625 L 17.796875 -14.140625 L 17.796875 0 L 5.03125 0 Z M 17.796875 -40.203125 L 17.796875 -24.1875 L 26.265625 -24.1875 C 29.085938 -24.1875 31.265625 -24.878906 32.796875 -26.265625 C 34.328125 -27.660156 35.09375 -29.671875 35.09375 -32.296875 C 35.09375 -34.878906 34.328125 -36.84375 32.796875 -38.1875 C 31.265625 -39.53125 29.085938 -40.203125 26.265625 -40.203125 Z M 17.796875 -40.203125 "/></g></g></g><g fill="#332219" fill-opacity="1"><g transform="translate(424.155974, 94.373661)"><g><path d="M 5.03125 -50.25 L 26.625 -50.25 C 34.519531 -50.25 40.941406 -47.925781 45.890625 -43.28125 C 50.847656 -38.644531 53.328125 -32.59375 53.328125 -25.125 C 53.328125 -17.707031 50.816406 -11.664062 45.796875 -7 C 40.773438 -2.332031 34.21875 0 26.125 0 L 5.03125 0 Z M 17.796875 -40.046875 L 17.796875 -10.1875 L 26.921875 -10.1875 C 30.835938 -10.1875 34.050781 -11.5625 36.5625 -14.3125 C 39.082031 -17.070312 40.34375 -20.648438 40.34375 -25.046875 C 40.34375 -29.453125 39.023438 -33.050781 36.390625 -35.84375 C 33.753906 -38.644531 30.40625 -40.046875 26.34375 -40.046875 Z M 17.796875 -40.046875 "/></g></g></g><g fill="#332219" fill-opacity="1"><g transform="translate(475.115518, 94.373661)"><g><path d="M 42.28125 -40.203125 L 17.796875 -40.203125 L 17.796875 -28.5625 L 40.34375 -28.5625 L 40.34375 -18.515625 L 17.796875 -18.515625 L 17.796875 0 L 5.03125 0 L 5.03125 -50.25 L 42.28125 -50.25 Z M 42.28125 -40.203125 "/></g></g></g><g fill="#332219" fill-opacity="1"><g transform="translate(514.375795, 94.373661)"><g><path d="M 4.375 -9.75 C 5.476562 -10.851562 6.914062 -11.40625 8.6875 -11.40625 C 10.457031 -11.40625 11.90625 -10.851562 13.03125 -9.75 C 14.15625 -8.65625 14.71875 -7.222656 14.71875 -5.453125 C 14.71875 -3.679688 14.15625 -2.234375 13.03125 -1.109375 C 11.90625 0.015625 10.457031 0.578125 8.6875 0.578125 C 6.914062 0.578125 5.476562 0.015625 4.375 -1.109375 C 3.28125 -2.234375 2.734375 -3.679688 2.734375 -5.453125 C 2.734375 -7.222656 3.28125 -8.65625 4.375 -9.75 Z M 4.375 -9.75 "/></g></g></g><g clip-path="url(#4f94f8ee2f)"><g clip-path="url(#715df7cbe8)"><path fill="#332219" d="M 49.636719 24.921875 L 51.875 24.207031 L 55.515625 35.597656 L 53.277344 36.3125 Z M 49.636719 24.921875 " fill-opacity="1" fill-rule="nonzero"/></g></g><path stroke-linecap="butt" transform="matrix(0.457255, -0.584815, 0.584815, 0.457255, 49.946757, 24.672256)" fill="none" stroke-linejoin="miter" d="M -0.00111384 1.501281 L 2.20719 1.497956 " stroke="#332219" stroke-width="3" stroke-opacity="1" stroke-miterlimit="4"/></svg>