<svg xmlns="http://www.w3.org/2000/svg" xmlns:xlink="http://www.w3.org/1999/xlink" width="547" zoomAndPan="magnify" viewBox="0 0 410.25 94.499997" height="126" preserveAspectRatio="xMidYMid meet" version="1.0"><defs><g/><clipPath id="98acc3ed9c"><path d="M 5.167969 14.117188 L 191.21875 14.117188 L 191.21875 81.292969 L 5.167969 81.292969 Z M 5.167969 14.117188 " clip-rule="nonzero"/></clipPath><clipPath id="0ff4dac36d"><path d="M 50.933594 14.117188 L 185.132812 14.117188 C 187.273438 14.117188 189.246094 15.261719 190.304688 17.121094 C 191.367188 18.980469 191.347656 21.261719 190.257812 23.101562 L 161.117188 72.308594 C 157.820312 77.878906 151.828125 81.292969 145.351562 81.292969 L 11.152344 81.292969 C 9.011719 81.292969 7.039062 80.148438 5.980469 78.289062 C 4.917969 76.429688 4.9375 74.148438 6.027344 72.308594 L 35.167969 23.101562 C 38.464844 17.53125 44.460938 14.117188 50.933594 14.117188 Z M 50.933594 14.117188 " clip-rule="nonzero"/></clipPath><clipPath id="01091349a8"><path d="M 34 1 L 53 1 L 53 35 L 34 35 Z M 34 1 " clip-rule="nonzero"/></clipPath><clipPath id="cbf8c04ee2"><path d="M 32.328125 3.644531 L 42.9375 -0.015625 L 54.761719 34.265625 L 44.152344 37.925781 Z M 32.328125 3.644531 " clip-rule="nonzero"/></clipPath><clipPath id="9e79f491c2"><path d="M 44.152344 37.917969 L 54.761719 34.257812 L 42.933594 -0.0195312 L 32.324219 3.640625 Z M 44.152344 37.917969 " clip-rule="nonzero"/></clipPath><clipPath id="0ad33859bc"><path d="M 37 18 L 43 18 L 43 28 L 37 28 Z M 37 18 " clip-rule="nonzero"/></clipPath><clipPath id="5d277470e1"><path d="M 37.816406 18.632812 L 39.492188 18.097656 L 42.214844 26.613281 L 40.539062 27.148438 Z M 37.816406 18.632812 " clip-rule="nonzero"/></clipPath></defs><g clip-path="url(#98acc3ed9c)"><g clip-path="url(#0ff4dac36d)"><path fill="#332219" d="M 0.707031 14.117188 L 195.679688 14.117188 L 195.679688 81.292969 L 0.707031 81.292969 Z M 0.707031 14.117188 " fill-opacity="1" fill-rule="nonzero"/></g></g><g clip-path="url(#01091349a8)"><g clip-path="url(#cbf8c04ee2)"><g clip-path="url(#9e79f491c2)"><path fill="#8d7d72" d="M 48.066406 15.765625 C 49.566406 20.117188 51.230469 24.449219 52.582031 28.855469 C 53.632812 32.289062 49.667969 35.996094 46.316406 34.027344 C 45.320312 33.445312 44.855469 32.488281 44.484375 31.457031 C 43.820312 29.605469 43.199219 27.738281 42.558594 25.875 C 41.078125 21.582031 39.449219 17.308594 38.105469 12.964844 C 36.808594 8.773438 43.019531 6.929688 44.695312 10.828125 C 46.441406 14.90625 47.621094 19.316406 49.070312 23.511719 C 49.289062 24.148438 48.296875 24.496094 48.074219 23.851562 L 44.539062 13.605469 C 44.214844 12.671875 44 11.464844 43.421875 10.632812 C 41.929688 8.484375 38.363281 10.128906 39.097656 12.621094 C 40.09375 15.996094 41.40625 19.308594 42.554688 22.632812 C 43.570312 25.582031 44.40625 28.683594 45.632812 31.554688 C 46.769531 34.226562 50.828125 33.851562 51.664062 31.046875 C 51.929688 30.15625 51.738281 29.644531 51.464844 28.847656 L 43.902344 6.933594 C 43.371094 5.386719 42.753906 3.691406 41.117188 3.019531 C 39.257812 2.257812 36.769531 3.285156 35.863281 5.023438 C 34.574219 7.484375 36.8125 11.589844 37.605469 13.898438 L 41.464844 25.074219 C 41.683594 25.714844 40.691406 26.058594 40.46875 25.417969 L 36.242188 13.175781 C 35.382812 10.675781 33.609375 7.367188 34.832031 4.722656 C 35.617188 3.03125 37.523438 1.871094 39.363281 1.726562 C 41.738281 1.542969 43.5 3.101562 44.398438 5.191406 C 45.855469 8.597656 46.859375 12.265625 48.066406 15.765625 Z M 48.066406 15.765625 " fill-opacity="1" fill-rule="nonzero"/></g></g></g><g fill="#332219" fill-opacity="1"><g transform="translate(193.418698, 70.560558)"><g><path d="M 16.375 -29.25 C 21.382812 -29.25 25.148438 -27.707031 27.671875 -24.625 C 30.191406 -21.550781 31.289062 -17.332031 30.96875 -11.96875 L 10.625 -11.96875 C 11.09375 -10.25 11.914062 -8.925781 13.09375 -8 C 14.269531 -7.070312 15.71875 -6.609375 17.4375 -6.609375 C 20.09375 -6.609375 22.398438 -7.585938 24.359375 -9.546875 L 29.25 -4.78125 C 26.132812 -1.375 21.929688 0.328125 16.640625 0.328125 C 11.953125 0.328125 8.21875 -1.015625 5.4375 -3.703125 C 2.664062 -6.390625 1.28125 -9.953125 1.28125 -14.390625 C 1.28125 -18.859375 2.664062 -22.453125 5.4375 -25.171875 C 8.21875 -27.890625 11.863281 -29.25 16.375 -29.25 Z M 10.46875 -16.953125 L 22.0625 -16.953125 C 22.0625 -18.710938 21.550781 -20.128906 20.53125 -21.203125 C 19.507812 -22.273438 18.160156 -22.8125 16.484375 -22.8125 C 14.898438 -22.8125 13.570312 -22.28125 12.5 -21.21875 C 11.425781 -20.164062 10.75 -18.742188 10.46875 -16.953125 Z M 10.46875 -16.953125 "/></g></g></g><g fill="#332219" fill-opacity="1"><g transform="translate(222.665202, 70.560558)"><g><path d="M 16.3125 -20.609375 L 21.46875 -28.921875 L 31.609375 -28.921875 L 22.4375 -14.859375 L 32.25 0 L 21.578125 0 L 16.3125 -9.078125 L 10.40625 0 L 0.21875 0 L 10.09375 -14.8125 L 0.859375 -28.921875 L 11.484375 -28.921875 Z M 16.3125 -20.609375 "/></g></g></g><g fill="#332219" fill-opacity="1"><g transform="translate(252.126351, 70.560558)"><g><path d="M 20.5625 -8 L 22.375 -1.5625 C 20.125 -0.238281 17.550781 0.421875 14.65625 0.421875 C 11.789062 0.421875 9.472656 -0.367188 7.703125 -1.953125 C 5.929688 -3.546875 5.046875 -5.8125 5.046875 -8.75 L 5.046875 -21.515625 L 1.015625 -21.515625 L 1.015625 -27.59375 L 5.046875 -27.59375 L 5.046875 -35.640625 L 14.28125 -35.640625 L 14.28125 -27.640625 L 21.84375 -27.640625 L 21.84375 -21.515625 L 14.28125 -21.515625 L 14.28125 -10.203125 C 14.28125 -9.085938 14.503906 -8.269531 14.953125 -7.75 C 15.398438 -7.238281 16.066406 -7 16.953125 -7.03125 C 17.816406 -7.03125 19.019531 -7.351562 20.5625 -8 Z M 20.5625 -8 "/></g></g></g><g fill="#332219" fill-opacity="1"><g transform="translate(272.413025, 70.560558)"><g/></g></g><g fill="#44312b" fill-opacity="1"><g transform="translate(167.607101, 70.560558)"><g><path d="M 32.46875 -29.890625 L 21.140625 -29.890625 L 21.140625 0 L 11.59375 0 L 11.59375 -29.890625 L 0.375 -29.890625 L 0.375 -37.625 L 32.46875 -37.625 Z M 32.46875 -29.890625 "/></g></g></g><g fill="#f4e8d9" fill-opacity="1"><g transform="translate(27.663959, 67.114519)"><g><path d="M 18.1875 -38 C 23.8125 -38 28.753906 -36.601562 33.015625 -33.8125 L 29.40625 -26.359375 C 27.4375 -27.503906 25.328125 -28.441406 23.078125 -29.171875 C 20.828125 -29.898438 18.929688 -30.265625 17.390625 -30.265625 C 14.628906 -30.265625 13.25 -29.351562 13.25 -27.53125 C 13.25 -26.351562 13.929688 -25.40625 15.296875 -24.6875 C 16.660156 -23.96875 18.316406 -23.347656 20.265625 -22.828125 C 22.210938 -22.316406 24.160156 -21.691406 26.109375 -20.953125 C 28.054688 -20.222656 29.707031 -19.035156 31.0625 -17.390625 C 32.425781 -15.742188 33.109375 -13.664062 33.109375 -11.15625 C 33.109375 -7.550781 31.695312 -4.734375 28.875 -2.703125 C 26.050781 -0.679688 22.457031 0.328125 18.09375 0.328125 C 14.976562 0.328125 11.898438 -0.207031 8.859375 -1.28125 C 5.816406 -2.351562 3.164062 -3.820312 0.90625 -5.6875 L 4.609375 -13.046875 C 6.503906 -11.398438 8.738281 -10.046875 11.3125 -8.984375 C 13.894531 -7.929688 16.1875 -7.40625 18.1875 -7.40625 C 19.726562 -7.40625 20.925781 -7.679688 21.78125 -8.234375 C 22.644531 -8.796875 23.078125 -9.613281 23.078125 -10.6875 C 23.078125 -11.71875 22.582031 -12.582031 21.59375 -13.28125 C 20.613281 -13.976562 19.390625 -14.492188 17.921875 -14.828125 C 16.453125 -15.171875 14.859375 -15.628906 13.140625 -16.203125 C 11.429688 -16.773438 9.84375 -17.398438 8.375 -18.078125 C 6.90625 -18.765625 5.675781 -19.847656 4.6875 -21.328125 C 3.707031 -22.816406 3.21875 -24.597656 3.21875 -26.671875 C 3.21875 -30.109375 4.585938 -32.851562 7.328125 -34.90625 C 10.066406 -36.96875 13.6875 -38 18.1875 -38 Z M 18.1875 -38 "/></g></g></g><g fill="#f4e8d9" fill-opacity="1"><g transform="translate(59.164343, 67.114519)"><g><path d="M 42.34375 -29.359375 C 45.53125 -29.359375 48.0625 -28.347656 49.9375 -26.328125 C 51.820312 -24.304688 52.765625 -21.613281 52.765625 -18.25 L 52.765625 0 L 43.53125 0 L 43.53125 -15.671875 C 43.53125 -17.390625 43.082031 -18.738281 42.1875 -19.71875 C 41.289062 -20.707031 40.070312 -21.203125 38.53125 -21.203125 C 36.8125 -21.160156 35.441406 -20.503906 34.421875 -19.234375 C 33.410156 -17.972656 32.90625 -16.335938 32.90625 -14.328125 L 32.90625 0 L 23.609375 0 L 23.609375 -15.671875 C 23.609375 -17.390625 23.171875 -18.738281 22.296875 -19.71875 C 21.421875 -20.707031 20.210938 -21.203125 18.671875 -21.203125 C 16.921875 -21.160156 15.523438 -20.492188 14.484375 -19.203125 C 13.453125 -17.921875 12.9375 -16.296875 12.9375 -14.328125 L 12.9375 0 L 3.703125 0 L 3.703125 -28.921875 L 12.9375 -28.921875 L 12.9375 -24.15625 C 14.90625 -27.550781 18.085938 -29.285156 22.484375 -29.359375 C 24.816406 -29.359375 26.832031 -28.773438 28.53125 -27.609375 C 30.226562 -26.453125 31.4375 -24.851562 32.15625 -22.8125 C 34.050781 -27.101562 37.445312 -29.285156 42.34375 -29.359375 Z M 42.34375 -29.359375 "/></g></g></g><g fill="#f4e8d9" fill-opacity="1"><g transform="translate(111.754625, 67.114519)"><g><path d="M 16.6875 -29.359375 C 20.664062 -29.359375 23.753906 -28.4375 25.953125 -26.59375 C 28.148438 -24.75 29.269531 -22.179688 29.3125 -18.890625 L 29.3125 0 L 20.234375 0 L 20.234375 -3.328125 C 18.335938 -0.828125 15.382812 0.421875 11.375 0.421875 C 8.332031 0.421875 5.914062 -0.414062 4.125 -2.09375 C 2.34375 -3.769531 1.453125 -5.953125 1.453125 -8.640625 C 1.453125 -11.398438 2.40625 -13.539062 4.3125 -15.0625 C 6.226562 -16.582031 8.976562 -17.359375 12.5625 -17.390625 L 20.1875 -17.390625 L 20.1875 -17.8125 C 20.1875 -19.25 19.710938 -20.367188 18.765625 -21.171875 C 17.816406 -21.972656 16.410156 -22.375 14.546875 -22.375 C 11.929688 -22.375 9.050781 -21.570312 5.90625 -19.96875 L 3.28125 -26.078125 C 7.96875 -28.265625 12.4375 -29.359375 16.6875 -29.359375 Z M 14.21875 -5.84375 C 15.6875 -5.84375 16.972656 -6.207031 18.078125 -6.9375 C 19.191406 -7.675781 19.894531 -8.640625 20.1875 -9.828125 L 20.1875 -12.390625 L 14.328125 -12.390625 C 11.535156 -12.390625 10.140625 -11.351562 10.140625 -9.28125 C 10.140625 -8.207031 10.5 -7.363281 11.21875 -6.75 C 11.9375 -6.144531 12.9375 -5.84375 14.21875 -5.84375 Z M 14.21875 -5.84375 "/></g></g></g><g fill="#f4e8d9" fill-opacity="1"><g transform="translate(140.893795, 67.114519)"><g><path d="M 12.984375 -28.921875 L 12.984375 -24.046875 C 15.023438 -27.515625 18.15625 -29.285156 22.375 -29.359375 L 22.375 -20.984375 C 19.726562 -21.234375 17.5625 -20.796875 15.875 -19.671875 C 14.195312 -18.546875 13.234375 -16.941406 12.984375 -14.859375 L 12.984375 0 L 3.703125 0 L 3.703125 -28.921875 Z M 12.984375 -28.921875 "/></g></g></g><g fill="#f4e8d9" fill-opacity="1"><g transform="translate(160.749124, 67.114519)"><g><path d="M 32.46875 -29.890625 L 21.140625 -29.890625 L 21.140625 0 L 11.59375 0 L 11.59375 -29.890625 L 0.375 -29.890625 L 0.375 -37.625 L 32.46875 -37.625 Z M 32.46875 -29.890625 "/></g></g></g><g fill="#332219" fill-opacity="1"><g transform="translate(284.403944, 70.560558)"><g><path d="M 3.75 -37.5625 L 20.125 -37.5625 C 24.914062 -37.5625 28.632812 -36.425781 31.28125 -34.15625 C 33.9375 -31.882812 35.265625 -28.65625 35.265625 -24.46875 C 35.265625 -20.070312 33.9375 -16.65625 31.28125 -14.21875 C 28.632812 -11.789062 24.914062 -10.578125 20.125 -10.578125 L 13.3125 -10.578125 L 13.3125 0 L 3.75 0 Z M 13.3125 -30.0625 L 13.3125 -18.09375 L 19.640625 -18.09375 C 21.753906 -18.09375 23.382812 -18.609375 24.53125 -19.640625 C 25.675781 -20.679688 26.25 -22.1875 26.25 -24.15625 C 26.25 -26.082031 25.675781 -27.546875 24.53125 -28.546875 C 23.382812 -29.554688 21.753906 -30.0625 19.640625 -30.0625 Z M 13.3125 -30.0625 "/></g></g></g><g fill="#332219" fill-opacity="1"><g transform="translate(317.836219, 70.560558)"><g><path d="M 3.75 -37.5625 L 19.90625 -37.5625 C 25.8125 -37.5625 30.613281 -35.828125 34.3125 -32.359375 C 38.019531 -28.890625 39.875 -24.363281 39.875 -18.78125 C 39.875 -13.238281 37.992188 -8.722656 34.234375 -5.234375 C 30.484375 -1.742188 25.582031 0 19.53125 0 L 3.75 0 Z M 13.3125 -29.953125 L 13.3125 -7.625 L 20.125 -7.625 C 23.0625 -7.625 25.46875 -8.648438 27.34375 -10.703125 C 29.21875 -12.765625 30.15625 -15.441406 30.15625 -18.734375 C 30.15625 -22.023438 29.171875 -24.71875 27.203125 -26.8125 C 25.242188 -28.90625 22.742188 -29.953125 19.703125 -29.953125 Z M 13.3125 -29.953125 "/></g></g></g><g fill="#332219" fill-opacity="1"><g transform="translate(355.937251, 70.560558)"><g><path d="M 31.609375 -30.0625 L 13.3125 -30.0625 L 13.3125 -21.359375 L 30.15625 -21.359375 L 30.15625 -13.84375 L 13.3125 -13.84375 L 13.3125 0 L 3.75 0 L 3.75 -37.5625 L 31.609375 -37.5625 Z M 31.609375 -30.0625 "/></g></g></g><g fill="#332219" fill-opacity="1"><g transform="translate(385.291068, 70.560558)"><g><path d="M 3.28125 -7.296875 C 4.101562 -8.117188 5.175781 -8.53125 6.5 -8.53125 C 7.820312 -8.53125 8.898438 -8.117188 9.734375 -7.296875 C 10.578125 -6.472656 11 -5.398438 11 -4.078125 C 11 -2.753906 10.578125 -1.671875 9.734375 -0.828125 C 8.898438 0.00390625 7.820312 0.421875 6.5 0.421875 C 5.175781 0.421875 4.101562 0.00390625 3.28125 -0.828125 C 2.457031 -1.671875 2.046875 -2.753906 2.046875 -4.078125 C 2.046875 -5.398438 2.457031 -6.472656 3.28125 -7.296875 Z M 3.28125 -7.296875 "/></g></g></g><g clip-path="url(#0ad33859bc)"><g clip-path="url(#5d277470e1)"><path fill="#332219" d="M 37.816406 18.632812 L 39.492188 18.097656 L 42.214844 26.617188 L 40.539062 27.152344 Z M 37.816406 18.632812 " fill-opacity="1" fill-rule="nonzero"/></g></g><path stroke-linecap="butt" transform="matrix(0.265898, -0.340075, 0.340075, 0.265898, 38.195771, 18.559956)" fill="none" stroke-linejoin="miter" d="M 0.00486936 1.499566 L 2.841324 1.49868 " stroke="#332219" stroke-width="3" stroke-opacity="1" stroke-miterlimit="4"/></svg>